<?xml version="1.0" standalone="no"?>
<!DOCTYPE svg PUBLIC "-//W3C//DTD SVG 20010904//EN"
 "http://www.w3.org/TR/2001/REC-SVG-20010904/DTD/svg10.dtd">
<svg version="1.0" xmlns="http://www.w3.org/2000/svg"
 width="850.000000pt" height="560.000000pt" viewBox="0 0 850.000000 560.000000"
 preserveAspectRatio="xMidYMid meet">
<metadata>
Created by potrace 1.16, written by Peter Selinger 2001-2019
</metadata>
<g transform="translate(0.000000,560.000000) scale(0.100000,-0.100000)"
fill="#000000" stroke="none">
<path d="M828 5478 c-3 -98 -4 -103 -25 -106 -31 -5 -29 -22 2 -22 l25 0 0
-210 0 -210 -25 0 c-31 0 -33 -17 -2 -22 22 -3 22 -4 25 -215 l2 -213 -25 0
c-14 0 -25 -4 -25 -10 0 -5 11 -10 25 -10 l25 0 -2 -212 c-3 -213 -3 -213 -26
-216 -26 -4 -20 -22 9 -22 18 0 19 -9 19 -210 l0 -210 -26 0 c-16 0 -24 -5
-22 -12 3 -7 13 -13 24 -13 18 0 19 -11 22 -207 2 -206 2 -207 -20 -210 -32
-5 -35 -28 -4 -28 l26 0 0 -210 c0 -201 -1 -210 -19 -210 -11 0 -23 -4 -26
-10 -4 -6 5 -10 19 -10 l26 0 0 -215 0 -215 -25 0 c-31 0 -33 -17 -2 -22 22
-3 22 -4 25 -215 l2 -213 -25 0 c-14 0 -25 -4 -25 -10 0 -5 11 -10 25 -10 l25
0 0 -210 0 -210 -25 0 c-16 0 -25 -6 -25 -15 0 -9 9 -15 25 -15 l25 0 0 -210
0 -210 -25 0 c-14 0 -25 -4 -25 -10 0 -5 11 -10 25 -10 25 0 25 0 25 -99 0
-55 3 -106 6 -115 5 -14 30 -16 170 -16 157 0 164 -1 164 -20 0 -11 7 -20 15
-20 8 0 15 9 15 20 0 20 7 20 855 20 848 0 855 0 855 -20 0 -11 7 -20 15 -20
8 0 15 9 15 20 0 20 7 20 855 20 848 0 855 0 855 -20 0 -11 7 -20 15 -20 8 0
15 9 15 20 0 20 7 20 855 20 848 0 855 0 855 -20 0 -11 5 -20 10 -20 6 0 10 9
10 20 0 20 7 20 855 20 848 0 855 0 855 -20 0 -11 7 -20 15 -20 8 0 15 9 15
20 0 19 7 20 165 20 140 0 165 2 165 15 0 13 -431 15 -3815 15 l-3815 0 0
2445 c0 1564 -3 2445 -10 2445 -5 0 -11 -45 -12 -102z"/>
<path d="M632 5434 c-18 -13 -22 -25 -22 -74 0 -53 3 -61 25 -76 33 -21 72 -6
81 31 8 30 -1 104 -13 115 -18 17 -50 19 -71 4z"/>
<path d="M3766 5040 c-2 -3 -8 -32 -15 -65 -7 -33 -16 -75 -21 -92 -5 -20 -4
-35 2 -39 14 -9 20 1 27 43 6 36 9 38 41 38 31 0 37 -4 54 -42 11 -24 23 -43
28 -43 13 0 9 32 -7 64 -14 26 -14 31 -1 38 43 24 59 65 34 86 -13 10 -138 21
-142 12z"/>
<path d="M6024 5015 c-23 -35 -16 -142 11 -161 51 -38 95 3 95 89 0 77 -11 97
-55 97 -26 0 -39 -6 -51 -25z"/>
<path d="M6375 5028 c-27 -89 -42 -188 -27 -188 5 0 15 20 22 45 l12 44 57 3
c49 3 57 6 69 30 7 15 10 38 6 53 -6 24 -10 25 -70 25 -43 0 -66 -4 -69 -12z"/>
<path d="M7255 5016 c-23 -34 -30 -91 -16 -124 30 -72 113 -63 119 12 4 51
-13 69 -60 63 -41 -5 -48 5 -24 36 16 21 39 22 56 2 16 -19 30 -19 30 0 0 38
-82 47 -105 11z"/>
<path d="M7736 5027 c-14 -10 -16 -25 -14 -87 3 -69 5 -75 30 -89 40 -23 75
-1 86 53 9 45 -2 116 -21 128 -19 12 -61 9 -81 -5z"/>
<path d="M422 4988 c-7 -7 -12 -39 -12 -75 0 -53 3 -64 21 -73 32 -18 66 -4
78 31 15 43 14 64 -4 99 -12 22 -23 30 -43 30 -16 0 -33 -5 -40 -12z"/>
<path d="M423 4548 c-12 -14 -16 -48 -14 -109 1 -28 6 -38 27 -48 58 -26 102
50 72 127 -11 30 -19 38 -44 40 -17 2 -36 -3 -41 -10z"/>
<path d="M624 4539 c-16 -17 -16 -23 -5 -42 10 -15 10 -22 2 -25 -6 -2 -11
-18 -11 -36 0 -40 35 -61 75 -46 27 10 44 55 27 72 -6 6 -8 24 -5 39 11 55
-45 80 -83 38z"/>
<path d="M428 4098 c-16 -13 -21 -40 -19 -109 1 -31 6 -39 31 -49 26 -11 33
-10 50 5 68 61 8 207 -62 153z"/>
<path d="M107 3884 c-26 -14 -29 -20 -25 -55 3 -38 3 -39 -29 -39 -18 0 -33
-4 -33 -10 0 -13 197 -14 204 -1 4 5 0 11 -6 14 -10 3 -10 7 1 21 18 21 0 59
-36 75 -31 14 -42 13 -76 -5z"/>
<path d="M421 3646 c-20 -24 -16 -128 5 -143 40 -29 79 -6 90 53 10 54 -17
104 -55 104 -16 0 -34 -6 -40 -14z"/>
<path d="M101 3564 c-18 -13 -22 -24 -19 -50 4 -33 3 -34 -29 -34 -18 0 -33
-4 -33 -10 0 -6 40 -10 99 -10 89 0 100 2 99 18 0 9 3 25 7 34 10 24 -36 68
-72 68 -16 0 -39 -7 -52 -16z"/>
<path d="M102 3414 c-27 -19 -31 -84 -6 -105 28 -23 93 -17 116 11 50 62 -42
142 -110 94z"/>
<path d="M426 3207 c-13 -10 -18 -27 -18 -72 -1 -49 3 -62 22 -77 28 -23 32
-22 61 1 19 16 24 29 24 69 0 75 -43 113 -89 79z"/>
<path d="M92 3158 c-7 -7 -12 -34 -12 -60 l0 -48 101 0 c76 0 100 3 97 13 -3
6 -17 13 -32 15 -20 3 -26 8 -22 18 6 16 -10 54 -28 66 -18 12 -91 9 -104 -4z"/>
<path d="M421 2756 c-20 -24 -16 -128 5 -143 40 -29 79 -6 90 53 10 54 -17
104 -55 104 -16 0 -34 -6 -40 -14z"/>
<path d="M422 2308 c-10 -13 -15 -49 -13 -105 1 -37 30 -58 67 -49 44 12 57
112 18 150 -19 19 -58 21 -72 4z"/>
<path d="M428 1869 c-14 -8 -18 -24 -18 -72 0 -70 10 -87 52 -87 37 0 64 51
54 104 -11 58 -46 80 -88 55z"/>
<path d="M422 1418 c-7 -7 -12 -39 -12 -75 0 -53 3 -64 21 -73 32 -18 66 -4
78 31 15 43 14 64 -4 99 -12 22 -23 30 -43 30 -16 0 -33 -5 -40 -12z"/>
<path d="M428 976 c-14 -10 -18 -28 -18 -73 0 -65 11 -83 51 -83 37 0 54 25
54 80 0 73 -43 110 -87 76z"/>
<path d="M627 972 c-20 -22 -23 -122 -5 -140 7 -7 26 -12 43 -12 38 0 55 29
55 90 0 67 -56 103 -93 62z"/>
<path d="M1151 551 c-26 -26 -29 -105 -5 -139 18 -25 56 -29 74 -7 19 23 23
105 8 135 -17 32 -51 37 -77 11z"/>
<path d="M4698 556 c-27 -20 -25 -126 2 -151 55 -49 111 37 79 122 -16 44 -47
55 -81 29z"/>
<path d="M8171 556 c-22 -26 -30 -74 -19 -113 11 -41 23 -53 52 -53 54 0 79
118 34 160 -25 23 -51 26 -67 6z"/>
</g>
</svg>
